<svg xmlns="http://www.w3.org/2000/svg" viewBox="0 0 512 512" role="img" aria-labelledby="title desc">
  <title id="title">AdminHelper Logo</title>
  <desc id="desc">Rounded square with a stylised wrench-and-shield mark for AdminHelper.</desc>
  <defs>
    <linearGradient id="bg" x1="64" y1="48" x2="448" y2="464" gradientUnits="userSpaceOnUse">
      <stop offset="0" stop-color="#38bdf8" />
      <stop offset="1" stop-color="#0284c7" />
    </linearGradient>
    <linearGradient id="mark" x1="128" y1="128" x2="384" y2="384" gradientUnits="userSpaceOnUse">
      <stop offset="0" stop-color="#ffffff" stop-opacity="0.95" />
      <stop offset="1" stop-color="#e0f2fe" stop-opacity="0.8" />
    </linearGradient>
  </defs>

  <!-- Background rounded square -->
  <rect x="24" y="24" width="464" height="464" rx="132" fill="url(#bg)" />

  <!-- Shield outline -->
  <path
    d="M256 108C256 108 164 148 132 168V272C132 344 188 400 256 420C324 400 380 344 380 272V168C348 148 256 108 256 108Z"
    fill="none"
    stroke="url(#mark)"
    stroke-width="24"
    stroke-linecap="round"
    stroke-linejoin="round"
  />

  <!-- Wrench / tool inside shield -->
  <g fill="none" stroke="url(#mark)" stroke-width="22" stroke-linecap="round" stroke-linejoin="round">
    <!-- Vertical shaft -->
    <line x1="256" y1="196" x2="256" y2="340" />
    <!-- Top crossbar (wrench head) -->
    <path d="M224 196C224 182 238 170 256 170C274 170 288 182 288 196" />
    <!-- Gear teeth accents -->
    <line x1="232" y1="260" x2="280" y2="260" />
  </g>

  <!-- Corner accent dots -->
  <g fill="#bae6fd">
    <circle cx="256" cy="108" r="10" />
    <circle cx="132" cy="168" r="8" />
    <circle cx="380" cy="168" r="8" />
    <circle cx="256" cy="420" r="10" />
  </g>
</svg>
